<svg width="336" height="68" fill="none" xmlns="http://www.w3.org/2000/svg"><mask id="a" style="mask-type:luminance" maskUnits="userSpaceOnUse" x="87" y="11" width="34" height="33"><path d="M87.959 27.492c0 9.108 7.381 16.493 16.492 16.493s16.493-7.381 16.493-16.493c0-9.112-7.382-16.492-16.493-16.492-9.111 0-16.492 7.384-16.492 16.492Z" fill="#fff"/></mask><g mask="url(#a)"><path d="M113.57 30.172c0 10.66-6.952 19.304-15.527 19.304-8.576 0-15.526-8.644-15.526-19.304 0-10.662 6.951-19.304 15.526-19.304 8.574 0 15.527 8.643 15.527 19.303Z" fill="#fff"/><path d="M104.448 11c-.449 0-.893.019-1.333.053a16.496 16.496 0 0 0-16.317 9.55s2.43-2.452 3.407-1.955c2.183 1.103 3.837 3.089 4.279 4.756.022.083.347.041.875-.077.433.398.746.836.876 1.309.066.249 3.128-.973 6.226-1.955.442-1.156 1.647-2.007 2.893-2.007 1.72 0 2.993 1.41 3.069 3.069.075 1.659-1.463 3.068-3.069 3.068a2.956 2.956 0 0 1-1.818-.613c-2.373 1.644-5.63 3.256-7.459 4.538a7.349 7.349 0 0 1-.844 3.644c-.07.21-.146.414-.231.614.215 1.597.49 3.107.912 4.401.082.035.16.079.234.13 1.046.746 2.184 1.313 3.33 1.876.74 1.192 1.761 1.975 3.205 2.13.446.048 1.215-.043 1.347-.03.132.014.273.488.414.488 9.109 0 16.494-7.38 16.494-16.492 0-9.11-7.382-16.492-16.494-16.492" fill="#022260"/><path d="M105.748 10.76c-.437 0-.869.018-1.297.052a16.053 16.053 0 0 0-15.882 9.292s.942-1.58 1.522-1.11c.654.53.983 3.133 1.486 3.387 2.124 1.078 4.046-1.177 4.479.445.02.083-2.15.386.85-.075.422.388.73.814.853 1.274.09.34 5.825-2.1 9.444-2.82.075.052.241.115.187.178-.219.249-1.848.414-2.209.738-2.764 2.488-7.796 7.057-8.836 9.016l.037.27c.013.35-1.009.844-1.039 1.18.24 2.157.25 5.225.81 6.929.083.034 1.567 1.321 1.638 1.372 1.019.724 1.872 1.005 2.986 1.552.721 1.161 1.853-.185 3.259-.034.433.047 1.172.427 1.301.44.138.01.276.01.415.005 8.863 0 16.048-7.185 16.048-16.048s-7.185-16.047-16.048-16.047" fill="#022260"/><path d="M115.742 18.92c2.472 4.894 2.488 9.676 1.174 13.685-2.543 6.429-8.376 9.47-13.379 9.823.431.281.844.59 1.258.892.232.166.463.339.694.508l.193-.012.033-.006c-1.03.332-2.087.57-3.16.714l.871 1.89c.046.15.087.298.127.448.905.811 1.379 2.039 1.082 3.33-.041.171-.097.34-.166.502 5.71-1.48 10.458-5.294 13.045-10.766 3.456-7.305 2.671-14.342-1.78-21.007" fill="#022260"/><path d="M124.193 28.218c1.722 5.805.729 11.81-2.537 16.721a3.133 3.133 0 0 0-.215-.48c-.639-1.162-1.812-1.759-3.027-1.76a22.47 22.47 0 0 0-.393-.249l-1.907-.829c1.944-2.27 3.495-5.225 4.055-8.634 1.065-6.505-1.856-15.529-11.318-19.231 7.763 1.996 13.042 6.717 15.343 14.462" fill="#022260"/><path d="M99.615 11.388a17.417 17.417 0 0 0-9.749 5.914 3.542 3.542 0 0 1 1.257 2.57c.024.63-.155 1.252-.51 1.772.097.127.185.261.263.4.12.064.24.13.36.199l1.45 1.125a15.695 15.695 0 0 1 4.953-6.827c4.58-3.605 12.813-5.2 19.721.546-4.858-5.156-10.766-7.23-17.745-5.7Z" fill="#022260"/><path d="M106.298 43.884c8.247-.91 14.662-7.902 14.662-16.392 0-9.109-7.384-16.492-16.493-16.492-1.729 0-3.397.266-4.964.76.601-.067 1.212-.1 1.831-.1 9.108 0 16.492 7.383 16.492 16.492 0 7.378-4.846 13.625-11.528 15.732Z" fill="url(#b)"/><path d="M112.756 21.117c-1.043-.713-2.559-.65-3.872-.403a3.55 3.55 0 0 1-1.737 1.169c-2.328.73-4.797.86-7.208 1.153-1.272.189-2.53.46-3.732.928-.705.302-1.382.564-2.194.602a3.831 3.831 0 0 1-1.845-.395 7.858 7.858 0 0 1-1.078 3.179 3.297 3.297 0 0 1-1.66 1.388c1.583 10.633 11.081 18.337 21.843 17.434a18.934 18.934 0 0 0 2.682-.399l-1.03.043c-1.162.01-2.508-.094-4.83-.552-2.322-.458-4.893-1.851-7.605-3.843-2.712-1.992-4.238-3.864-4.492-5.847-.332-2.887 8.115-9.078 13.009-10.837 2.844-1.021 5.01.146 5.01.146s.249-.63.291-1.156c.042-.525.083-1.53-1.555-2.61" fill="#E5E5E5"/><path d="M96.953 21.068c.046 1.67.012 3.342.045 5.013.012.648.057 1.294.1 1.94.233-.213.477-.415.732-.624 1.256-1.012 2.737-1.7 4.152-2.465-.581-1.434-.039-3.082 1.237-4.008l.076-.052c-.1-.243-.14-.507-.118-.769.431.096.874.12 1.312.07.596-.088 1.541-.447 2.068-.7.527-.253 1.527-.532 1.527-.532s-.116-.202-.696-.598c-.573-.354-1.76-.747-3.424-.854-1.665-.107-4.692.562-6.581 1.586-.166.09-.327.188-.484.294.026.57.04 1.139.054 1.699ZM92.96 33.843c.128-1.177.166-2.36.183-3.544.01-.638.014-1.276.026-1.914.011-.639.057-1.274.016-1.908-.11-.81-.02-1.54.374-2.287.305-.576.817-.995 1.393-1.283.147-1.391.54-2.746 1.161-4a12.445 12.445 0 0 0-1.785 1.775l.296-.842c.188-.487.59-1.726.566-2.94-.008-.913-1.095-2.631-1.709-3.595A20.152 20.152 0 0 0 90.03 26.05a20.644 20.644 0 0 0 2.669 9.077c.103-.425.19-.852.262-1.283Z" fill="#E5E5E5"/><path d="m116.875 39.896-.905.497c-1.037.525-2.289 1.028-4.573 1.647-2.284.62-5.203.474-8.52-.072a7.67 7.67 0 0 1-3.717-1.726c-2.534-2.21-3.908-4.204-3.993-6.199-.083-2.902 8.845-8.367 13.869-9.711 2.92-.78 4.981.564 4.981.564s.3-.607.386-1.127c.087-.52.215-1.518-1.331-2.732-1.546-1.257-4.423-.693-5.797-.39-1.417.304-2.662.477-3.566.174-.945-.304-.644-1.431-.644-1.431a3.97 3.97 0 0 0 1.29.254c.601 0 1.589-.217 2.147-.39.558-.173 1.589-.304 1.589-.304s-.083-.216-.601-.693c-.515-.434-1.632-.995-3.264-1.344-1.631-.35-4.723-.13-6.74.607-2.018.737-3.733 2.688-3.733 2.688l.344-.824c.215-.477.687-1.69.73-2.902.043-.913-.945-2.688-1.502-3.685a20.159 20.159 0 0 0-4.166 12.528c0 5.806.804 9.92 4.633 13.655-.451.543.61 2.157.039 2.542a20.585 20.585 0 0 0 7.494 2.624 20.13 20.13 0 0 0 8.187 1.73c.905.006 1.809-.052 2.705-.174l-1.037-.042c-1.161-.083-2.488-.304-4.766-.955-.373-.107-.74-.235-1.099-.381a20.126 20.126 0 0 0 9.331-2.881 18.921 18.921 0 0 0 2.226-1.547" fill="#fff"/></g><path fill-rule="evenodd" clip-rule="evenodd" d="m18.92 22.123-.673-.398c-.448-.265-1.042-.557-1.781-.875a18.343 18.343 0 0 0-2.415-.916 8.793 8.793 0 0 0-2.572-.398c-.66 0-1.201.106-1.623.318-.422.213-.633.571-.633 1.075 0 .478.21.863.633 1.155.422.292 1.016.557 1.781.796.792.239 1.728.53 2.81.876 1.742.53 3.246 1.14 4.513 1.83 1.266.69 2.242 1.58 2.929 2.668.686 1.062 1.029 2.481 1.029 4.26 0 1.698-.304 3.131-.91 4.299-.608 1.141-1.426 2.057-2.455 2.747a10.904 10.904 0 0 1-3.443 1.513c-1.267.291-2.56.438-3.88.438-1.345 0-2.757-.133-4.235-.399a32.156 32.156 0 0 1-4.235-1.154A23.471 23.471 0 0 1 0 38.206L3.325 31.4l.791.478c.528.318 1.228.676 2.098 1.075.871.398 1.834.756 2.89 1.074 1.082.319 2.164.478 3.245.478.845 0 1.425-.106 1.742-.318.343-.24.515-.544.515-.916 0-.557-.29-.982-.871-1.274-.58-.318-1.346-.61-2.296-.876-.924-.292-1.953-.623-3.087-.995-1.636-.557-2.982-1.18-4.038-1.87-1.055-.717-1.834-1.553-2.335-2.509-.501-.982-.752-2.163-.752-3.543 0-2.096.488-3.848 1.465-5.255a9.201 9.201 0 0 1 3.839-3.184c1.61-.743 3.338-1.115 5.185-1.115 1.372 0 2.692.172 3.958.517 1.293.319 2.494.717 3.602 1.195 1.135.477 2.124.929 2.969 1.353l-3.325 6.41ZM24.268 12.888v28.264h7.718V12.888h-7.718ZM41.528 41.328V27.434L52.69 41.328h6.135V13.063h-7.719v14.371l-11.28-14.37h-6.017v28.264h7.719ZM60.61 13.063v28.265h10.805c2.85 0 5.33-.584 7.441-1.752 2.138-1.167 3.787-2.813 4.948-4.936 1.188-2.123 1.781-4.618 1.781-7.484 0-2.601-.54-4.963-1.623-7.086-1.055-2.15-2.638-3.848-4.75-5.096-2.084-1.274-4.683-1.91-7.797-1.91H60.609Zm16.386 10.271c.501 1.088.752 2.362.752 3.822 0 1.407-.25 2.68-.752 3.822-.501 1.114-1.227 1.99-2.177 2.627-.924.637-2.058.955-3.404.955h-3.087V19.831h3.087c1.32 0 2.454.305 3.404.916.95.61 1.676 1.473 2.177 2.587Z" fill="#022260"/><path fill-rule="evenodd" clip-rule="evenodd" d="M131.136 41.236V27.454l11.162 13.782h6.135V13.199h-7.718v14.255L129.434 13.2h-6.017v28.037h7.719ZM170.245 34.523v6.712h-20.028V13.2h19.672v6.713h-11.953v3.949h10.212V30.1h-10.212v4.422h12.309Z" fill="#E2100E"/><path d="M190.12 13.199h-7.009l4.621 13.386-1.919 5.726-6.031-19.112h-8.262l10.494 28.037h6.618l4.034-10.03 4.072 10.03h6.618l10.494-28.037h-8.301l-5.992 19.112-1.997-5.726 4.699-13.386h-7.009l-2.584 8.648-2.546-8.648Z" fill="#E2100E"/><path fill-rule="evenodd" clip-rule="evenodd" d="m230.984 22.214-.673-.402c-.449-.268-1.043-.563-1.781-.884a18.238 18.238 0 0 0-2.415-.925 8.714 8.714 0 0 0-2.573-.401c-.659 0-1.2.107-1.623.321-.422.214-.633.576-.633 1.085 0 .482.211.87.633 1.166.423.294 1.016.562 1.782.803.791.241 1.728.536 2.81.884 1.741.536 3.246 1.152 4.512 1.85 1.267.696 2.243 1.593 2.929 2.692.686 1.071 1.029 2.505 1.029 4.3 0 1.714-.303 3.161-.91 4.34-.607 1.152-1.425 2.077-2.454 2.773a10.848 10.848 0 0 1-3.444 1.527 17.053 17.053 0 0 1-3.879.442c-1.345 0-2.757-.134-4.235-.401a31.916 31.916 0 0 1-4.235-1.166 23.356 23.356 0 0 1-3.76-1.768l3.324-6.873.792.483c.528.321 1.227.683 2.098 1.085a22.68 22.68 0 0 0 2.889 1.085c1.082.322 2.164.482 3.246.482.844 0 1.425-.107 1.742-.321.343-.241.514-.55.514-.925 0-.562-.29-.99-.871-1.286-.58-.321-1.345-.616-2.295-.884-.924-.294-1.953-.63-3.088-1.005-1.636-.562-2.982-1.192-4.037-1.888-1.056-.724-1.834-1.568-2.335-2.532-.502-.991-.752-2.184-.752-3.577 0-2.117.488-3.885 1.464-5.305a9.218 9.218 0 0 1 3.84-3.215c1.609-.75 3.338-1.125 5.185-1.125 1.372 0 2.691.174 3.958.522 1.293.322 2.494.724 3.602 1.206a48.83 48.83 0 0 1 2.968 1.366l-3.324 6.47Z" fill="#E2100E"/><path d="M224.981 54.583c0 .396-.114.734-.343 1.016a2.072 2.072 0 0 1-.897.646c-.378.15-.791.225-1.24.225h-3.826v-7.323h4.143c.369 0 .69.092.963.277a1.8 1.8 0 0 1 .62.713 1.865 1.865 0 0 1-.066 1.886 1.734 1.734 0 0 1-.844.686c.457.123.818.348 1.081.673.273.326.409.726.409 1.2Zm-1.332-.25a.924.924 0 0 0-.145-.515 1.144 1.144 0 0 0-.383-.383 1.017 1.017 0 0 0-.541-.145h-2.599v2.058h2.52c.211 0 .4-.044.567-.132.176-.097.317-.22.423-.37a.914.914 0 0 0 .158-.514Zm-3.668-4.038v1.953h2.283c.202 0 .382-.04.54-.12a.957.957 0 0 0 .383-.342.924.924 0 0 0 .145-.515.952.952 0 0 0-.132-.514.887.887 0 0 0-.356-.343 1.082 1.082 0 0 0-.514-.12h-2.349ZM232.012 55.309v1.16h-5.555v-7.322h5.449v1.161h-4.143v1.9h3.589v1.069h-3.589v2.032h4.249ZM234.06 49.147l2.203 3.589 2.23-3.589h1.438l-3.008 4.737v2.586h-1.306v-2.6l-2.982-4.723h1.425ZM243.852 56.522a3.838 3.838 0 0 1-1.544-.303 3.959 3.959 0 0 1-1.214-.845 3.78 3.78 0 0 1-.791-1.187 3.762 3.762 0 0 1-.264-1.385c0-.484.096-.946.29-1.386.193-.448.462-.844.805-1.187a3.875 3.875 0 0 1 1.214-.818 3.864 3.864 0 0 1 1.53-.304c.572 0 1.091.11 1.557.33.466.211.866.493 1.201.845.334.352.589.752.765 1.2.185.44.277.889.277 1.346 0 .484-.097.95-.29 1.399a3.8 3.8 0 0 1-.792 1.187 3.887 3.887 0 0 1-1.214.818c-.457.194-.967.29-1.53.29Zm-2.481-3.707a2.623 2.623 0 0 0 .673 1.768c.22.237.484.427.792.567a2.68 2.68 0 0 0 1.042.198c.387 0 .73-.07 1.029-.211a2.39 2.39 0 0 0 .779-.594c.211-.246.373-.519.488-.818.114-.299.171-.607.171-.923a2.44 2.44 0 0 0-.184-.937 2.315 2.315 0 0 0-.502-.805 2.308 2.308 0 0 0-.778-.567 2.417 2.417 0 0 0-1.016-.211c-.396 0-.748.074-1.056.224-.308.14-.567.334-.778.58a2.593 2.593 0 0 0-.488.805c-.115.3-.172.607-.172.924ZM250.44 51.588v4.882h-1.306v-7.323h1.016l4.578 4.987v-4.987h1.32v7.323h-1.082l-4.526-4.882ZM257.999 56.47v-7.323h2.876c.871 0 1.596.167 2.177.501.589.326 1.029.766 1.319 1.32.299.545.449 1.152.449 1.82 0 .74-.163 1.386-.488 1.94a3.36 3.36 0 0 1-1.372 1.293c-.59.3-1.285.449-2.085.449h-2.876Zm5.488-3.668c0-.502-.105-.937-.316-1.306a2.167 2.167 0 0 0-.884-.871c-.379-.211-.849-.317-1.412-.317h-1.57v5h1.57c.563 0 1.038-.105 1.425-.316.387-.22.682-.52.884-.897.202-.387.303-.818.303-1.293ZM276.206 49.147v7.323h-1.32v-3.167h-4.024v3.167h-1.306v-7.323h1.306v2.995h4.024v-2.995h1.32ZM283.718 55.309v1.16h-5.555v-7.322h5.449v1.161h-4.143v1.9h3.589v1.069h-3.589v2.032h4.249ZM284.314 56.47l3.259-7.323h1.069l3.232 7.323h-1.385l-.844-1.9h-3.088l-.831 1.9h-1.412Zm3.787-5.713-1.253 2.678h2.48l-1.227-2.678ZM292.98 56.47v-7.323h2.877c.87 0 1.596.167 2.177.501.589.326 1.029.766 1.319 1.32.299.545.449 1.152.449 1.82 0 .74-.163 1.386-.489 1.94a3.349 3.349 0 0 1-1.372 1.293c-.589.3-1.284.449-2.084.449h-2.877Zm5.489-3.668c0-.502-.106-.937-.317-1.306a2.16 2.16 0 0 0-.884-.871c-.378-.211-.848-.317-1.411-.317h-1.57v5h1.57c.563 0 1.038-.105 1.425-.316.387-.22.681-.52.884-.897.202-.387.303-.818.303-1.293ZM301.278 56.47v-7.323h1.306v6.162h3.985v1.16h-5.291ZM307.733 56.47v-7.323h1.306v7.323h-1.306ZM312.299 51.588v4.882h-1.306v-7.323h1.016l4.578 4.987v-4.987h1.32v7.323h-1.082l-4.526-4.882ZM325.412 55.309v1.16h-5.554v-7.322h5.449v1.161h-4.143v1.9h3.589v1.069h-3.589v2.032h4.248ZM331.55 50.994a2.332 2.332 0 0 0-.501-.33 3.586 3.586 0 0 0-.739-.29 3.25 3.25 0 0 0-.884-.119c-.51 0-.888.08-1.134.238a.762.762 0 0 0-.357.673c0 .21.071.378.211.501.141.123.352.229.634.317.29.079.651.171 1.082.277.527.123.985.268 1.372.435.387.159.686.374.897.647.211.263.317.615.317 1.055 0 .387-.075.717-.225.99-.149.272-.36.497-.633.673-.264.167-.572.29-.924.369-.351.08-.725.119-1.121.119a6.227 6.227 0 0 1-1.755-.25 5.341 5.341 0 0 1-1.517-.713l.594-1.135c.149.14.356.281.62.422.272.14.589.26.95.356.36.097.739.145 1.134.145.467 0 .827-.07 1.082-.21.255-.15.383-.361.383-.634a.64.64 0 0 0-.264-.54c-.167-.133-.409-.247-.726-.344a18.327 18.327 0 0 0-1.148-.303 7.67 7.67 0 0 1-1.293-.436c-.334-.167-.589-.374-.765-.62-.176-.255-.264-.576-.264-.963 0-.484.128-.888.383-1.214a2.31 2.31 0 0 1 1.029-.752c.44-.176.928-.264 1.465-.264a4.684 4.684 0 0 1 2.678.831l-.581 1.07Z" fill="#022260"/><path d="M242.643 27.564v-.111c0-7.704 5.474-14.18 13.331-14.18 5.135 0 8.502 2.42 10.645 6.104l-5.952 4.838c-1.189-1.824-2.55-2.866-4.626-2.866-2.821 0-4.896 2.717-4.896 6.03v.074c0 3.535 2.04 6.214 4.964 6.214 2.075 0 3.402-1.042 4.763-2.828l5.849 4.615c-2.313 3.72-5.612 6.252-11.087 6.252-7.482 0-12.991-6.438-12.991-14.142ZM266.756 27.564v-.112c0-7.778 5.814-14.253 13.808-14.253 7.957 0 13.705 6.401 13.705 14.142v.111c0 7.74-5.781 14.253-13.808 14.253-7.959 0-13.705-6.4-13.705-14.141Zm18.977 0v-.112c0-3.312-2.211-6.14-5.305-6.14-3.163 0-5.205 2.754-5.205 6.029v.111c0 3.35 2.211 6.14 5.273 6.14 3.231 0 5.237-2.753 5.237-6.028ZM295.835 13.795h8.74v3.721c1.633-2.27 3.912-4.317 7.414-4.317 3.299 0 5.851 1.6 7.178 4.429 2.176-2.717 4.693-4.429 8.331-4.429 5.306 0 8.502 3.61 8.502 9.974v17.863h-8.741V26.26c0-2.977-1.326-4.54-3.399-4.54-2.042 0-3.572 1.563-3.572 4.54v14.812h-8.741V26.26c0-2.977-1.327-4.54-3.402-4.54-2.073 0-3.57 1.563-3.57 4.54v14.812h-8.74V13.795ZM244.206 38.468c0 1.525-1.121 2.754-2.55 2.754-1.395 0-2.518-1.266-2.518-2.754 0-1.526 1.123-2.754 2.518-2.754 1.394 0 2.55 1.228 2.55 2.754Z" fill="#E2100E"/><defs><linearGradient id="b" x1="95.685" y1="19.493" x2="119.475" y2="39.49" gradientUnits="userSpaceOnUse"><stop stop-color="#1C63EE"/><stop offset=".636" stop-color="#E2100E"/></linearGradient></defs></svg>