<svg width="32" height="32" viewBox="0 0 32 32" fill="none" xmlns="http://www.w3.org/2000/svg">
<path d="M16 0C7.17731 0 0 7.17731 0 16C0 24.8227 7.17731 32 16 32C24.8227 32 32 24.8227 32 16C32 7.17731 24.8227 0 16 0ZM22.6667 22.6667H9.33331C8.596 22.6667 8 22.0694 8 21.3334C8 20.5974 8.596 20.0001 9.33331 20.0001H22.6666C23.4039 20.0001 23.9999 20.5974 23.9999 21.3334C24 22.0693 23.404 22.6667 22.6667 22.6667ZM22.6667 17.3333H9.33331C8.596 17.3333 8 16.736 8 16C8 15.264 8.596 14.6667 9.33331 14.6667H22.6666C23.4039 14.6667 23.9999 15.264 23.9999 16C23.9999 16.736 23.404 17.3333 22.6667 17.3333ZM22.6667 12H9.33331C8.596 12 8 11.4027 8 10.6667C8 9.93069 8.596 9.33337 9.33331 9.33337H22.6666C23.4039 9.33337 23.9999 9.93069 23.9999 10.6667C23.9999 11.4027 23.404 12 22.6667 12Z" fill="#022260"/>
</svg>
