<svg width="32" height="32" viewBox="0 0 32 32" fill="none" xmlns="http://www.w3.org/2000/svg">
<path d="M8.3509 27.3446C7.80889 26.9597 7.48884 26.5556 7.3737 26.1474C7.4083 24.8022 7.96276 23.5215 8.9224 22.5747C9.89751 21.6127 11.2126 21.0729 12.5831 21.0722H19.4446C20.8151 21.0729 22.1302 21.6127 23.1053 22.5747C24.0269 23.4839 24.5748 24.7011 24.6475 25.9876C22.2553 28.0665 19.1896 29.2142 16.0139 29.2142C14.3714 29.2142 12.2782 28.9349 10.5404 28.3717C9.67118 28.09 8.91421 27.7446 8.3509 27.3446ZM20.6604 12.0017C20.6604 12.9198 20.3879 13.8172 19.8774 14.5807C19.3669 15.3441 18.6412 15.9392 17.7921 16.2906C16.943 16.642 16.0087 16.7339 15.1073 16.5548C14.2059 16.3756 13.3779 15.9334 12.7281 15.2842C12.0783 14.6349 11.6358 13.8077 11.4566 12.9073C11.2773 12.0068 11.3693 11.0735 11.721 10.2253C12.0726 9.37706 12.6681 8.652 13.4322 8.14185C14.1964 7.63169 15.0948 7.35938 16.0139 7.35938C17.2463 7.35938 18.4282 7.84857 19.2996 8.71922C20.1709 9.58986 20.6604 10.7706 20.6604 12.0017Z" fill="white" stroke="white"/>
<path d="M27.9204 25.8858L27.579 26.2962L27.5813 26.2979C27.5602 26.3202 27.5388 26.3427 27.5166 26.366C27.4774 26.4072 27.4359 26.4507 27.3898 26.5002L27.3882 26.502C27.0762 26.8404 26.7575 27.162 26.4252 27.4644C26.3565 27.5263 26.2891 27.5837 26.2161 27.6459C26.1836 27.6735 26.15 27.7021 26.1147 27.7324L26.1142 27.7328C25.7917 28.0108 25.4603 28.2747 25.1202 28.5239L24.8744 28.6968C22.28 30.521 19.185 31.5 16.0126 31.5C12.8401 31.5 9.74515 30.521 7.15079 28.6968L6.88847 28.5123C6.55443 28.268 6.22942 28.0073 5.91098 27.7328L5.91048 27.7324C5.8724 27.6997 5.83694 27.6696 5.80309 27.6409C5.73194 27.5807 5.66786 27.5264 5.60132 27.4657L5.60016 27.4646C5.26838 27.1638 4.9497 26.8412 4.63698 26.502L4.63534 26.5002C4.58816 26.4495 4.54626 26.4057 4.5071 26.3648C4.47539 26.3316 4.44547 26.3003 4.416 26.2688L4.42072 26.2648L4.10101 25.884C1.77572 23.1146 0.500843 19.6155 0.500006 16.0008L0.500006 16.0004C0.497826 13.5133 1.09519 11.0623 2.24159 8.85457C3.38799 6.64688 5.0497 4.74751 7.0862 3.31715C9.1227 1.8868 11.4741 0.967549 13.9414 0.637204C16.4087 0.306859 18.9193 0.575139 21.2609 1.41934C23.6025 2.26354 25.7061 3.65881 27.3938 5.48709C29.0814 7.31537 30.3036 9.52287 30.9568 11.9228C31.61 14.3228 31.6751 16.8446 31.1466 19.2751C30.6181 21.7055 29.5115 23.973 27.9204 25.8858ZM3.95912 26.4893L3.94911 26.4981L4.32619 26.1697C4.32595 26.1694 4.32572 26.1692 4.32549 26.1689L3.95912 26.4893ZM4.03457 26.5927C4.07475 26.6361 4.11559 26.6788 4.15641 26.7216C4.19425 26.7612 4.23208 26.8008 4.26934 26.8409C4.58957 27.1883 4.91895 27.5219 5.26434 27.8351L4.03457 26.5927ZM6.3701 26.1989L6.3671 26.4255L6.53549 26.5771C9.13561 28.9182 12.5115 30.2138 16.0114 30.2138C19.5114 30.2138 22.8873 28.9182 25.4874 26.5771L25.6558 26.4255L25.6528 26.1989C25.6312 24.5669 24.9674 23.0091 23.8052 21.8625C22.643 20.7159 21.0758 20.0727 19.4427 20.0718H19.4425H12.5804H12.5802C10.9471 20.0727 9.37987 20.7159 8.21767 21.8625C7.05545 23.0091 6.39168 24.5669 6.3701 26.1989ZM19.1483 7.30979C18.2198 6.68986 17.1281 6.35899 16.0114 6.35899C14.514 6.35899 13.0778 6.95335 12.0189 8.01144C10.9599 9.06955 10.3649 10.5047 10.3649 12.0013C10.3649 13.1173 10.6961 14.2083 11.3166 15.1362C11.9371 16.064 12.819 16.7872 13.8507 17.2142C14.8825 17.6412 16.0177 17.7529 17.113 17.5352C18.2082 17.3175 19.2143 16.7802 20.004 15.9912C20.7937 15.2021 21.3316 14.1967 21.5495 13.1021C21.7674 12.0076 21.6555 10.873 21.2281 9.84195C20.8007 8.81091 20.0769 7.92972 19.1483 7.30979Z" fill="#022260" stroke="#022260"/>
</svg>
